<svg xmlns="http://www.w3.org/2000/svg"  viewBox="0 0 24 24" width="24px" height="24px"><path d="M 3 4.25 C 2.58 4.25 2.25 4.58 2.25 5 L 2.2304688 4.9707031 C 2.2304688 5.3807031 2.5604688 5.7207031 2.9804688 5.7207031 L 4.9003906 5.7207031 L 5.2226562 7.0078125 C 5.2267511 7.0588047 5.2150496 7.1094932 5.2304688 7.1601562 L 7.2304688 14.660156 C 7.3204688 14.990156 7.6209375 15.220703 7.9609375 15.220703 L 17.960938 15.220703 C 18.300938 15.220703 18.599453 14.989922 18.689453 14.669922 L 20.689453 7.1796875 C 20.749453 6.9496875 20.700547 6.7092969 20.560547 6.5292969 C 20.420547 6.3392969 20.200703 6.2402344 19.970703 6.2402344 L 17.970703 6.2402344 C 17.550703 6.2402344 17.220703 6.5702344 17.220703 6.9902344 C 17.220703 7.4002344 17.550703 7.7402344 17.970703 7.7402344 L 19 7.7402344 L 17.400391 13.740234 L 8.5605469 13.740234 L 6.9609375 7.7402344 L 13.970703 7.7402344 C 14.380703 7.7402344 14.720703 7.4002344 14.720703 6.9902344 C 14.720703 6.5702344 14.380703 6.2402344 13.970703 6.2402344 L 6.578125 6.2402344 L 6.2207031 4.8105469 C 6.1407031 4.4805469 5.84 4.25 5.5 4.25 L 3 4.25 z M 8.5 16.25 C 7.25 16.25 6.25 17.25 6.25 18.5 C 6.25 19.74 7.25 20.75 8.5 20.75 C 9.74 20.75 10.75 19.74 10.75 18.5 C 10.75 17.25 9.74 16.25 8.5 16.25 z M 17.5 16.25 C 16.25 16.25 15.25 17.25 15.25 18.5 C 15.25 19.74 16.25 20.75 17.5 20.75 C 18.74 20.75 19.75 19.74 19.75 18.5 C 19.75 17.25 18.74 16.25 17.5 16.25 z M 8.5 17.75 C 8.91 17.75 9.25 18.08 9.25 18.5 C 9.25 18.91 8.91 19.25 8.5 19.25 C 8.08 19.25 7.75 18.91 7.75 18.5 C 7.75 18.08 8.08 17.75 8.5 17.75 z M 17.5 17.75 C 17.91 17.75 18.25 18.08 18.25 18.5 C 18.25 18.91 17.91 19.25 17.5 19.25 C 17.08 19.25 16.75 18.91 16.75 18.5 C 16.75 18.08 17.08 17.75 17.5 17.75 z"/></svg>